<svg transform="scale(1)" id="Q2yI1kul3P" xmlns="http://www.w3.org/2000/svg" xmlns:xlink="http://www.w3.org/1999/xlink" viewBox="0 0 500 500" class="pbimage_pbimage__wrapper__image__0LEis false"><title>Credit Card 1</title><defs><style> .cls-1{font-family:Roboto-Bold,Roboto;font-size:15.63px;font-weight:700;} .cls-1, .cls-2{isolation:isolate;} .cls-1, .cls-2, .cls-3{fill:#68e1fd;} .cls-4{fill:url(#linear-gradient-Q2yI1kul3P);} .cls-4, .cls-5, .cls-6, .cls-7, .cls-8, .cls-9, .cls-10, .cls-2, .cls-11, .cls-12, .cls-13, .cls-14, .cls-15, .cls-16, .cls-17, .cls-18, .cls-3{stroke-width:0px;} .cls-5{fill:url(#linear-gradient-11-Q2yI1kul3P);} .cls-6{fill:url(#linear-gradient-12-Q2yI1kul3P);} .cls-7{fill:url(#linear-gradient-13-Q2yI1kul3P);} .cls-8{fill:url(#linear-gradient-10-Q2yI1kul3P);} .cls-9{fill:url(#linear-gradient-15-Q2yI1kul3P);} .cls-10{fill:url(#linear-gradient-14-Q2yI1kul3P);} .cls-2{opacity:.42;} .cls-11{fill:url(#linear-gradient-4-Q2yI1kul3P);} .cls-12{fill:url(#linear-gradient-2-Q2yI1kul3P);} .cls-13{fill:url(#linear-gradient-3-Q2yI1kul3P);} .cls-14{fill:url(#linear-gradient-8-Q2yI1kul3P);} .cls-15{fill:url(#linear-gradient-9-Q2yI1kul3P);} .cls-16{fill:url(#linear-gradient-7-Q2yI1kul3P);} .cls-17{fill:url(#linear-gradient-5-Q2yI1kul3P);} .cls-18{fill:url(#linear-gradient-6-Q2yI1kul3P);} .cls-19{letter-spacing:-.03em;}
 .cls-1, .cls-2, .cls-3{fill:#68E1FD;}</style><linearGradient id="linear-gradient-Q2yI1kul3P" x1="296.07" y1="289.14" x2="558.01" y2="752.41" gradientUnits="userSpaceOnUse"><stop offset="0" stop-color="#231f20" stop-opacity="0" style="stop-color: rgb(35, 31, 32);"></stop><stop offset="1" stop-color="#231f20" style="stop-color: rgb(35, 31, 32);"></stop></linearGradient><linearGradient id="linear-gradient-2-Q2yI1kul3P" x1="-898.17" y1="3199.9" x2="-1193.66" y2="2872.49" gradientTransform="translate(1289 3367.76) scale(1 -1)" xlink:href="#linear-gradient-Q2yI1kul3P"></linearGradient><linearGradient id="linear-gradient-3-Q2yI1kul3P" x1="2197.46" y1="5469.6" x2="2516.82" y2="5569.16" gradientTransform="translate(512.45 4810.59) rotate(-19.29) scale(1.27 -.79) skewX(-14.01)" xlink:href="#linear-gradient-Q2yI1kul3P"></linearGradient><linearGradient id="linear-gradient-4-Q2yI1kul3P" x1="194.42" y1="22.95" x2="202.24" y2="96.25" xlink:href="#linear-gradient-Q2yI1kul3P"></linearGradient><linearGradient id="linear-gradient-5-Q2yI1kul3P" x1="207.23" y1="21.58" x2="215.05" y2="94.88" xlink:href="#linear-gradient-Q2yI1kul3P"></linearGradient><linearGradient id="linear-gradient-6-Q2yI1kul3P" x1="201.04" y1="22.24" x2="208.86" y2="95.55" xlink:href="#linear-gradient-Q2yI1kul3P"></linearGradient><linearGradient id="linear-gradient-7-Q2yI1kul3P" x1="185.3" y1="23.92" x2="193.12" y2="97.22" xlink:href="#linear-gradient-Q2yI1kul3P"></linearGradient><linearGradient id="linear-gradient-8-Q2yI1kul3P" x1="216.76" y1="20.57" x2="224.58" y2="93.87" xlink:href="#linear-gradient-Q2yI1kul3P"></linearGradient><linearGradient id="linear-gradient-9-Q2yI1kul3P" x1="226.13" y1="178.43" x2="121.55" y2="521.49" xlink:href="#linear-gradient-Q2yI1kul3P"></linearGradient><linearGradient id="linear-gradient-10-Q2yI1kul3P" x1="105.53" y1="343.69" x2="519.93" y2="-75.92" xlink:href="#linear-gradient-Q2yI1kul3P"></linearGradient><linearGradient id="linear-gradient-11-Q2yI1kul3P" x1="132.32" y1="158.59" x2="125.81" y2="359.27" xlink:href="#linear-gradient-Q2yI1kul3P"></linearGradient><linearGradient id="linear-gradient-12-Q2yI1kul3P" x1="144.21" y1="158.97" x2="137.7" y2="359.66" xlink:href="#linear-gradient-Q2yI1kul3P"></linearGradient><linearGradient id="linear-gradient-13-Q2yI1kul3P" x1="138.49" y1="158.79" x2="131.98" y2="359.47" xlink:href="#linear-gradient-Q2yI1kul3P"></linearGradient><linearGradient id="linear-gradient-14-Q2yI1kul3P" x1="123.81" y1="158.31" x2="117.29" y2="359" xlink:href="#linear-gradient-Q2yI1kul3P"></linearGradient><linearGradient id="linear-gradient-15-Q2yI1kul3P" x1="153.18" y1="159.26" x2="146.66" y2="359.95" xlink:href="#linear-gradient-Q2yI1kul3P"></linearGradient></defs><g id="background"><path class="cls-2" d="M79.02,70.71c76.54-50.48,186.21-43.72,255.97,15.81,16.4,13.99,30.7,30.47,48.27,42.97,15.26,10.84,32.78,18.52,46.7,31.04,28.63,25.74,37.11,67.84,33.35,106.15-6.51,66.41-46.5,128.68-104.22,162.2-67.82,39.42-154.71,37.73-226.78,6.77-18.52-7.95-36.45-17.82-51.33-31.4-53.31-48.61-43.1-117.32-66.15-178.72-22.65-60.63,11.82-120.31,64.19-154.81Z"></path></g><g id="cards"><path class="cls-3" d="M468.88,306l-128.31,74.72c-7.51,4.38-19.8,4.39-27.43,0l-215.52-123.41c-7.63-4.37-7.72-11.46-.2-15.84l128.31-74.68c7.52-4.38,19.8-4.39,27.43,0l215.52,123.41c7.63,4.32,7.72,11.42.2,15.8Z"></path><path class="cls-3" d="M474.8,298.02l-128.3,74.68c-7.52,4.38-19.81,4.39-27.43,0l-215.52-123.41c-7.63-4.37-7.72-11.46-.2-15.84l128.33-74.69c7.52-4.38,19.81-4.39,27.43,0l215.52,123.41c7.61,4.4,7.7,11.47.17,15.85Z"></path><path class="cls-3" d="M470.13,300.75l-128.3,74.68c-7.52,4.38-19.81,4.39-27.43,0l-215.52-123.41c-7.63-4.37-7.72-11.46-.19-15.84l128.3-74.68c7.52-4.38,19.81-4.39,27.43,0l215.52,123.41c7.66,4.41,7.72,11.46.19,15.84Z"></path><path class="cls-4" d="M470.13,300.74l-128.31,74.69c-.96.55-1.96,1.02-2.99,1.42-7.48,2.9-17.75,2.42-24.44-1.4l-215.52-123.41c-7.62-4.36-7.72-11.45-.2-15.83l58.79-34.21,69.48-40.47c7.51-4.38,19.8-4.39,27.43,0l215.51,123.41c7.73,4.38,7.79,11.44.27,15.81Z"></path><polygon class="cls-12" points="217.37 167.3 461.25 305.13 418.01 330.36 175.67 190.97 217.37 167.3"></polygon><path class="cls-13" d="M397.62,342.63l-58.79,34.22c-7.48,2.9-17.75,2.42-24.44-1.4l-215.52-123.41c-7.62-4.36-7.72-11.45-.2-15.83l58.79-34.21c7.47-2.9,17.75-2.42,24.44,1.4l215.52,123.4c7.62,4.37,7.72,11.46.2,15.83Z"></path><path class="cls-3" d="M259.04,217.49l-27.61,16.05c-4.17,2.43-10.97,2.43-15.21,0l-33.82-19.37c-4.23-2.42-4.28-6.4-.11-8.79l27.61-16.07c4.17-2.42,10.97-2.43,15.21,0l33.82,19.37c4.23,2.45,4.28,6.38.11,8.8Z"></path><path class="cls-11" d="M241.2,227.7l-4.57,2.63-14.09-8.08c-2.39.91-4.97,1.18-7.5.77l-.68-.13-.53-.29c-1.18-.64-11.66-6.31-14.03-8.05-2.52-1.83-1.22-4.57,0-6.25l-11.24-6.4,4.57-2.63,14.63,8.38-1.22,1.22c-1.3,1.36-1.98,3.04-1.63,3.44,1.45,1.07,8.03,4.74,12.55,7.19.96-.08,1.87-.43,2.64-1l2.24-1.57,18.84,10.77Z"></path><path class="cls-17" d="M249.65,222.77l4.57-2.63-14.11-8.08c1.96-1.7,1.83-3.43,1.27-4.33l-.23-.39-.49-.3c-1.12-.68-11.03-6.67-14.07-8.04-3.23-1.44-7.97-.67-10.83,0l-11.24-6.4-4.57,2.63,14.63,8.38,2.13-.69c2.36-.76,5.25-1.17,5.95-.97,1.83.83,8.23,4.57,12.55,7.19-.06.32-.37.91-1.7,1.54l-2.7,1.31,18.84,10.79Z"></path><polygon class="cls-18" points="246.19 224.98 245.23 225.54 196.2 197.45 197.15 196.89 246.19 224.98"></polygon><polygon class="cls-16" points="231.21 233.7 230.25 234.25 181.21 206.17 182.17 205.61 231.21 233.7"></polygon><polygon class="cls-14" points="261.17 216.26 260.22 216.82 211.17 188.72 212.13 188.17 261.17 216.26"></polygon><text class="cls-1" transform="translate(267.29 232.39) rotate(29.6) scale(1.02 .86) skewX(-26.32)"><tspan x="0" y="0">CREDI</tspan><tspan class="cls-19" x="43.71" y="0">T</tspan><tspan x="52.93" y="0" xml:space="preserve"> CARD</tspan></text><path class="cls-3" d="M227.02,296.25l-105.23-60.76c-2.33-1.34-2.04-3.66.65-5.26h0c2.69-1.55,6.76-1.72,9.1-.37l105.23,60.76c2.33,1.34,2.04,3.66-.66,5.25h0c-2.69,1.55-6.76,1.73-9.09.38Z"></path><path class="cls-3" d="M384.63,301.19l-128.27,74.67c-7.52,4.38-19.81,4.39-27.43,0L13.42,252.45c-7.62-4.37-7.72-11.46-.19-15.84l128.3-74.68c7.52-4.38,19.81-4.39,27.43,0l215.52,123.41c7.6,4.37,7.69,11.46.16,15.85Z"></path><path class="cls-3" d="M385.88,295.93l-128.3,74.68c-7.52,4.38-19.81,4.38-27.43,0L14.63,247.19c-7.63-4.37-7.72-11.46-.2-15.84l128.29-74.69c7.52-4.38,19.81-4.39,27.43,0l215.52,123.41c7.65,4.38,7.73,11.47.21,15.85Z"></path><path class="cls-15" d="M385.89,295.92l-128.31,74.68c-.96.56-1.96,1.03-2.99,1.43-7.48,2.9-17.76,2.42-24.45-1.4L14.62,247.21c-7.62-4.37-7.72-11.45-.19-15.83l58.78-34.21,69.52-40.47c7.52-4.38,19.8-4.39,27.43,0l215.52,123.41c7.64,4.34,7.73,11.43.22,15.81Z"></path><path class="cls-8" d="M313.37,337.81l-58.78,34.22c-7.48,2.9-17.76,2.42-24.45-1.4L14.62,247.21c-7.62-4.37-7.72-11.45-.19-15.83l58.78-34.21c7.48-2.9,17.75-2.42,24.44,1.4l215.52,123.41c7.62,4.36,7.72,11.45.2,15.82Z"></path><path class="cls-3" d="M174.79,212.68l-27.6,16.07c-4.17,2.42-10.97,2.43-15.22,0l-33.82-19.37c-4.23-2.43-4.29-6.4-.11-8.79l27.61-16.06c4.18-2.43,10.97-2.43,15.22,0l33.82,19.37c4.22,2.41,4.28,6.35.1,8.78Z"></path><path class="cls-5" d="M156.95,222.87l-4.53,2.64-14.11-8.08c-2.39.91-4.97,1.17-7.5.77l-.69-.14-.52-.28c-1.19-.64-11.66-6.31-14.03-8.05-2.52-1.83-1.22-4.57,0-6.25l-11.23-6.4,4.53-2.63,14.63,8.37-1.18,1.23c-1.29,1.37-1.97,3.04-1.63,3.45,1.45,1.07,8.03,4.74,12.55,7.19.96-.09,1.87-.43,2.65-1l2.24-1.57,18.8,10.75Z"></path><path class="cls-6" d="M165.41,217.95l4.53-2.63-14.12-8.08c1.95-1.71,1.83-3.43,1.27-4.33l-.24-.39-.49-.3c-1.12-.68-11.02-6.67-14.07-8.04-3.23-1.44-7.96-.67-10.83,0l-11.24-6.4-4.57,2.63,14.63,8.38,2.12-.69c2.36-.75,5.25-1.16,5.96-.96,1.83.83,8.23,4.57,12.55,7.19-.06.32-.37.91-1.71,1.54l-2.74,1.31,18.96,10.79Z"></path><polygon class="cls-7" points="161.94 220.16 160.99 220.71 111.95 192.63 112.91 192.07 161.94 220.16"></polygon><polygon class="cls-10" points="146.96 228.87 146.01 229.43 96.96 201.35 97.92 200.79 146.96 228.87"></polygon><polygon class="cls-9" points="176.93 211.44 175.97 212 126.93 183.91 127.89 183.35 176.93 211.44"></polygon><text class="cls-1" transform="translate(183.04 227.56) rotate(29.6) scale(1.02 .86) skewX(-26.32)"><tspan x="0" y="0">CREDI</tspan><tspan class="cls-19" x="43.71" y="0">T</tspan><tspan x="52.93" y="0" xml:space="preserve"> CARD</tspan></text><path class="cls-3" d="M265.73,342.97L54.38,220.95c-2.33-1.34-2.04-3.66.65-5.25h0c2.69-1.55,6.76-1.72,9.1-.37l211.35,122.02c2.33,1.34,2.04,3.66-.66,5.25h0c-2.69,1.56-6.76,1.72-9.09.37Z"></path><path class="cls-3" d="M142.77,291.43l-105.23-60.76c-2.33-1.35-2.04-3.7.65-5.26h0c2.7-1.55,6.76-1.72,9.1-.37l105.23,60.76c2.33,1.34,2.04,3.66-.65,5.25h0c-2.7,1.55-6.76,1.73-9.1.38Z"></path><path class="cls-3" d="M249.88,353.3l-76.21-43.99c-2.33-1.35-2.04-3.7.66-5.26h0c2.69-1.55,6.76-1.72,9.1-.37l76.21,44c2.33,1.34,2.04,3.66-.66,5.25h0c-2.69,1.51-6.76,1.68-9.09.37Z"></path></g></svg>