<svg transform="scale(1)" id="LXnHDtBfVp" xmlns="http://www.w3.org/2000/svg" xmlns:xlink="http://www.w3.org/1999/xlink" viewBox="0 0 500 500" class="pbimage_pbimage__wrapper__image__0LEis false"><title>Online Banking</title><defs><style> .cls-1{isolation:isolate;opacity:.18;} .cls-1, .cls-2{fill:#68e1fd;} .cls-3{fill:url(#linear-gradient-8-LXnHDtBfVp);} .cls-4{fill:url(#linear-gradient-7-LXnHDtBfVp);} .cls-5{fill:url(#linear-gradient-5-LXnHDtBfVp);} .cls-6{fill:url(#linear-gradient-6-LXnHDtBfVp);} .cls-7{fill:url(#linear-gradient-9-LXnHDtBfVp);} .cls-8{fill:url(#linear-gradient-4-LXnHDtBfVp);} .cls-9{fill:url(#linear-gradient-3-LXnHDtBfVp);} .cls-10{fill:url(#linear-gradient-2-LXnHDtBfVp);} .cls-11{fill:#231f20;} .cls-12{fill:url(#linear-gradient-LXnHDtBfVp);} .cls-13{fill:#fff;} .cls-14{fill:#5ce1f9;} .cls-15{fill:url(#linear-gradient-10-LXnHDtBfVp);} .cls-16{fill:url(#linear-gradient-11-LXnHDtBfVp);} .cls-17{fill:url(#linear-gradient-12-LXnHDtBfVp);} .cls-18{fill:url(#linear-gradient-13-LXnHDtBfVp);} .cls-19{fill:url(#linear-gradient-19-LXnHDtBfVp);} .cls-20{fill:url(#linear-gradient-14-LXnHDtBfVp);} .cls-21{fill:url(#linear-gradient-15-LXnHDtBfVp);} .cls-22{fill:url(#linear-gradient-16-LXnHDtBfVp);} .cls-23{fill:url(#linear-gradient-17-LXnHDtBfVp);} .cls-24{fill:url(#linear-gradient-18-LXnHDtBfVp);}
 .cls-1, .cls-2{fill:#68E1FD;}
 .cls-14{fill:#5CE1F9;}
 .cls-13{fill:#FFFFFF;}
 .cls-11{fill:#231F20;}</style><linearGradient id="linear-gradient-LXnHDtBfVp" x1="1139.89" y1="2706.01" x2="1199.67" y2="2818.04" gradientTransform="translate(-2561.73 730.86) rotate(-78.71)" gradientUnits="userSpaceOnUse"><stop offset="0" stop-color="#000" style="stop-color: rgb(0, 0, 0);"></stop><stop offset=".2" stop-color="#000" stop-opacity=".69" style="stop-color: rgb(0, 0, 0);"></stop><stop offset=".32" stop-color="#000" stop-opacity=".32" style="stop-color: rgb(0, 0, 0);"></stop><stop offset="1" stop-color="#000" stop-opacity="0" style="stop-color: rgb(0, 0, 0);"></stop></linearGradient><linearGradient id="linear-gradient-2-LXnHDtBfVp" x1="436.79" y1="3361.02" x2="453.83" y2="3392.96" gradientTransform="translate(-3012.01 557.9) rotate(-90)" xlink:href="#linear-gradient-LXnHDtBfVp"></linearGradient><linearGradient id="linear-gradient-3-LXnHDtBfVp" x1="669.97" y1="3199.7" x2="687.01" y2="3231.63" gradientTransform="translate(-2840.39 819.64) rotate(-90)" xlink:href="#linear-gradient-LXnHDtBfVp"></linearGradient><linearGradient id="linear-gradient-4-LXnHDtBfVp" x1="1148.41" y1="2722.46" x2="1189" y2="2798.52" xlink:href="#linear-gradient-LXnHDtBfVp"></linearGradient><linearGradient id="linear-gradient-5-LXnHDtBfVp" x1="-370.6" y1="3086.51" x2="-315.47" y2="3189.81" gradientTransform="translate(-2953.34 908.11) rotate(-108.11)" xlink:href="#linear-gradient-LXnHDtBfVp"></linearGradient><linearGradient id="linear-gradient-6-LXnHDtBfVp" x1="-1044.9" y1="2876.59" x2="-1029.19" y2="2906.03" gradientTransform="translate(-2768.8 -782.48) rotate(-90)" xlink:href="#linear-gradient-LXnHDtBfVp"></linearGradient><linearGradient id="linear-gradient-7-LXnHDtBfVp" x1="-871.04" y1="2978.72" x2="-855.33" y2="3008.16" gradientTransform="translate(-2849.73 -590.33) rotate(-90)" xlink:href="#linear-gradient-LXnHDtBfVp"></linearGradient><linearGradient id="linear-gradient-8-LXnHDtBfVp" x1="-362.73" y1="3101.68" x2="-325.31" y2="3171.81" gradientTransform="translate(-2953.34 908.11) rotate(-108.11)" xlink:href="#linear-gradient-LXnHDtBfVp"></linearGradient><linearGradient id="linear-gradient-9-LXnHDtBfVp" x1="1367.58" y1="304.17" x2="1435.64" y2="431.7" gradientTransform="translate(-1103.83 807.54) rotate(-43.4)" xlink:href="#linear-gradient-LXnHDtBfVp"></linearGradient><linearGradient id="linear-gradient-10-LXnHDtBfVp" x1="130.18" y1="58.11" x2="192.87" y2="175.6" gradientTransform="matrix(1,0,0,1,0,0)" xlink:href="#linear-gradient-LXnHDtBfVp"></linearGradient><linearGradient id="linear-gradient-11-LXnHDtBfVp" x1="1898.26" y1="1453.21" x2="1918.21" y2="1490.61" gradientTransform="translate(-1746.96 -1367.6)" xlink:href="#linear-gradient-LXnHDtBfVp"></linearGradient><linearGradient id="linear-gradient-12-LXnHDtBfVp" x1="1371.1" y1="326.42" x2="1417.4" y2="413.17" gradientTransform="translate(-1103.83 807.54) rotate(-43.4)" xlink:href="#linear-gradient-LXnHDtBfVp"></linearGradient><linearGradient id="linear-gradient-13-LXnHDtBfVp" x1="140.15" y1="97.24" x2="150.97" y2="138.49" gradientTransform="matrix(1,0,0,1,0,0)" xlink:href="#linear-gradient-LXnHDtBfVp"></linearGradient><linearGradient id="linear-gradient-14-LXnHDtBfVp" x1="196.73" y1="160.8" x2="196.73" y2="217.18" gradientTransform="matrix(1,0,0,1,0,0)" xlink:href="#linear-gradient-LXnHDtBfVp"></linearGradient><linearGradient id="linear-gradient-15-LXnHDtBfVp" x1="256.83" y1="288.42" x2="255.96" y2="203.72" gradientTransform="matrix(1,0,0,1,0,0)" xlink:href="#linear-gradient-LXnHDtBfVp"></linearGradient><linearGradient id="linear-gradient-16-LXnHDtBfVp" x1="256.36" y1="160.8" x2="256.36" y2="217.18" gradientTransform="matrix(1,0,0,1,0,0)" xlink:href="#linear-gradient-LXnHDtBfVp"></linearGradient><linearGradient id="linear-gradient-17-LXnHDtBfVp" x1="315.99" y1="160.8" x2="315.99" y2="217.18" gradientTransform="matrix(1,0,0,1,0,0)" xlink:href="#linear-gradient-LXnHDtBfVp"></linearGradient><linearGradient id="linear-gradient-18-LXnHDtBfVp" x1="244.62" y1="-9.91" x2="271.76" y2="375.01" gradientTransform="matrix(1,0,0,1,0,0)" xlink:href="#linear-gradient-LXnHDtBfVp"></linearGradient><linearGradient id="linear-gradient-19-LXnHDtBfVp" x1="256.29" y1="108.04" x2="252.94" y2="231.21" gradientTransform="matrix(1,0,0,1,0,0)" xlink:href="#linear-gradient-LXnHDtBfVp"></linearGradient></defs><path class="cls-1" id="BACKGROUND" d="M445.49,305.83c-.63,8.97-2.03,17.94-3.87,26.65-3.83,18.16-9.53,36.3-20.32,51.4-24.87,34.81-74.73,49.95-114.11,60.32-22.35,5.88-45.4,9.24-68.66,10.43-1.52.08-3.04.15-4.56.21-9.1.36-18.23.4-27.36.11-5.77-.18-11.54-.47-17.3-.9-1.5-.11-3-.22-4.5-.34-5.61-.47-11.2-1.05-16.78-1.72-3.87-.47-7.72-.99-11.57-1.57-.22-.04-.43-.06-.65-.1-11.71-1.77-23.68-4.18-35.07-7.69-20.76-6.35-39.66-16.29-51.8-32.35-15.2-20.11-16.8-46.2-13.1-70.27,3.69-24.07,12.09-47.45,15.07-71.6,4.41-35.82-3.24-72.22,1.58-108.01,9.49-70.55,93.79-114.06,167.89-115.53,48.47-.96,98.47,18.39,125.55,54.52,13.03,17.39,20.4,37.75,24.82,58.33,3.5,16.3,12.14,28.92,17.26,43.61,6.64,19.03,18.68,32.84,28.02,50.49,8.7,16.45,10.79,35.23,9.47,53.99Z"></path><rect class="cls-11" x="137.75" y="147.06" width="237.71" height="150.33" rx="12.01" ry="12.01" fill="#231F20"></rect><path class="cls-11" d="M392.48,412.88H119.33c-8.16,0-14.28-6.48-14.65-13.93-.1-2.04-.02-14.39-.02-14.39l31.15-66.02c2.24-5.53,7.61-9.15,13.58-9.15h213.03c5.97,0,11.34,3.62,13.58,9.15l31.15,66.28s.29,14.26-.5,17.18c-1.64,6.08-7.15,10.88-14.17,10.88Z" fill="#231F20"></path><path class="cls-2" d="M392.48,398.6H119.33c-10.39,0-17.48-10.52-13.58-20.15l30.06-74.19c2.24-5.53,7.61-9.15,13.58-9.15h213.03c5.97,0,11.34,3.62,13.58,9.15l30.06,74.19c3.9,9.63-3.18,20.15-13.58,20.15Z"></path><polygon class="cls-11" points="300.76 388.69 209.25 388.69 217.16 351.1 292.85 351.1 300.76 388.69" fill="#231F20"></polygon><path class="cls-11" d="M368.02,344.02h-225.99c-4.39,0-7.39-4.45-5.74-8.52l12.71-31.37c.95-2.34,3.22-3.87,5.74-3.87h204.82c2.52,0,4.79,1.53,5.74,3.87l8.46,31.37c1.65,4.07-1.35,8.52-5.74,8.52Z" fill="#231F20"></path><path class="cls-14" d="M376.76,150.99l4.32-1.11,8.19-2.52s-2.5-21.7-9.73-32.69c-7.23-10.99-9.02-15.58-9.02-15.58l-24.56,8.82s9.2,15.56,9.57,20.23c.36,4.67.34,11.26,3.18,14.77,2.83,3.51,10.95,9.49,10.95,9.49l7.11-1.41Z" fill="#5CE1F9"></path><path class="cls-12" d="M351.29,112.79s2.36-1.18,1.09-4.26l12.75-4.88s2.77,2.67,4.78,2.01c0,0,9.63,13.7,10.22,17.83s4.24,17.69,4.29,18.06-1.9,1.86-1.2,4.83l-12.96,2.51-6.05-1.71-3.74-6.05s-2.2-20.82-9.19-28.34Z"></path><ellipse class="cls-10" cx="363.01" cy="113.64" rx="3.9" ry="1.39" transform="translate(-16.68 136.6) rotate(-20.84)"></ellipse><ellipse class="cls-9" cx="373.3" cy="142.2" rx="3.9" ry="1.39" transform="translate(-20.13 73.01) rotate(-10.88)"></ellipse><circle class="cls-8" cx="369.05" cy="126.8" r="8.34"></circle><path class="cls-13" d="M371.64,127.64c.98-.31,1.71-.99,1.42-2.2-.26-1.12-.94-1.55-2.2-1.26-1.04.25-1.53.9-1.87,2.42-.38,1.82-.92,2.85-2.48,3.22-1.58.37-2.87-.38-3.26-2.03-.46-1.97.62-2.94,1.96-3.29l.26,1.11c-.76.21-1.55.73-1.26,1.97.25,1.04.96,1.37,1.95,1.13s1.34-.89,1.65-2.36c.4-1.96,1.13-2.94,2.67-3.31,1.69-.4,3.1.23,3.53,2.2.44,2-.54,3.06-2.11,3.52l-.27-1.14ZM375.28,125.29l-12.86,3.04-.17-.74,12.86-3.04.17.74Z" fill="#FFFFFF"></path><path class="cls-14" d="M148.64,279.32l2.96-2.85,5.44-5.73s-11.83-16.3-22.62-21.85c-10.78-5.55-14.3-8.43-14.3-8.43l-15.73,18.2s14.44,8.33,16.84,11.92c2.41,3.58,5.37,8.89,9.24,10.43,3.87,1.54,13.09,2.67,13.09,2.67l5.08-4.35Z" fill="#5CE1F9"></path><path class="cls-5" d="M110.9,260.16s1.36-2.01-1.06-3.91l8.04-9.69s3.43.9,4.75-.55c0,0,13.94,6.65,16.28,9.69,2.34,3.04,11.42,12.29,11.62,12.56s-.69,2.35,1.22,4.42l-9.27,7.88-5.63,1.37-5.74-3.16s-11.2-15.73-20.21-18.61Z"></path><ellipse class="cls-6" cx="120.69" cy="255.54" rx="3.6" ry="1.28" transform="translate(-152.95 184.92) rotate(-50.25)"></ellipse><ellipse class="cls-4" cx="141.89" cy="273.82" rx="3.6" ry="1.28" transform="translate(-143.4 156.68) rotate(-40.28)"></ellipse><circle class="cls-3" cx="131.5" cy="263.37" r="7.69"></circle><path class="cls-13" d="M133.97,262.87c.64-.69.92-1.57.15-2.41-.72-.78-1.46-.82-2.33-.01-.72.67-.82,1.42-.4,2.79.52,1.63.55,2.71-.53,3.71-1.1,1.02-2.48.99-3.54-.16-1.26-1.37-.83-2.64.08-3.53l.72.78c-.51.51-.91,1.29-.12,2.15.67.72,1.39.67,2.08.03.66-.61.67-1.32.25-2.64-.57-1.76-.42-2.88.65-3.87,1.18-1.08,2.59-1.22,3.83.17,1.26,1.41.95,2.7-.1,3.79l-.73-.79ZM135.82,259.34l-8.96,8.26-.47-.51,8.96-8.26.47.51Z" fill="#FFFFFF"></path><path class="cls-2" d="M280.63,41.17s-2.8,20.52-23.32,21.27c0,0,20.89.37,22.2,20.52,0,0,2.24-18.66,20.71-19.77,0,0-19.77-4.29-19.59-22.01Z"></path><path class="cls-13" d="M334.71,264.49s-1.82,13.33-15.15,13.82c0,0,13.57.24,14.42,13.33,0,0,1.45-12.12,13.45-12.85,0,0-12.85-2.79-12.73-14.3Z" fill="#FFFFFF"></path><path class="cls-2" d="M402.26,200.15s-2.8,20.52-23.32,21.27c0,0,20.89.37,22.2,20.52,0,0,2.24-18.66,20.71-19.77,0,0-19.77-4.29-19.59-22.01Z"></path><path class="cls-2" d="M97.25,208.73s-2.29,16.8-19.1,17.42c0,0,17.11.31,18.18,16.8,0,0,1.83-15.28,16.96-16.19,0,0-16.19-3.51-16.04-18.03Z"></path><path class="cls-14" d="M147.61,121.5c4.93-.07,9.86-.63,14.68-1.67,3.91-.84,8.32-2.16,11.23-5.07,2.76-2.76,1.82-6.3,2.1-10.01.29-3.83.5-7.84,1.43-11.58,0,0-29.44-8.19-29.44-8.19-1.04,12.66-2.34,25.52-10.21,35.98,3.38.42,6.79.6,10.2.55Z" fill="#5CE1F9"></path><path class="cls-7" d="M149.42,93.26s3.05.47,3.92-3.34l15.49,3.97s.83,4.43,3.21,5.16c.35.11-.14,6.57-.16,7.05-.08,2.21-.2,4.41-.37,6.62-.19,2.51.58,3.91-2.21,4.85s-5.91,1.8-8.94,2.44c-6.5,1.37-13.19,2-19.78,1.35,4.96-5.86,7.67-14.62,8.71-22.12.27-1.98.39-4,.13-5.99Z"></path><path class="cls-15" d="M145.55,101.45l19.92,4.46s3.3,8.08,8.04,8.87c0,0,.61,2.75-9.51,3.26s-19.34-8.27-19.34-8.27l-.59-2.82,1.49-5.5Z"></path><ellipse class="cls-16" cx="160.04" cy="102" rx="1.62" ry="4.57" transform="translate(21.29 231.48) rotate(-75.53)"></ellipse><path class="cls-17" d="M164,111.95c1.13,1.19,3.86,5.47,2.56,7.13-.31.4-.79.61-1.26.82-.93.41-1.87.82-2.87,1.02-.89.17-1.8.17-2.71.17-3.62,0-7.23,0-10.85-.01-4.3,0-.28-7.99,1.32-9.51,3.92-3.71,10.1-3.53,13.81.39Z"></path><path class="cls-13" d="M158.93,117.82c1.14.37,2.3.21,2.85-1.14.51-1.25.15-2.12-1.25-2.69-1.16-.47-2.08-.17-3.43,1.05-1.59,1.49-2.81,2.1-4.55,1.4-1.76-.71-2.49-2.3-1.74-4.15.89-2.19,2.58-2.39,4.1-1.82l-.5,1.24c-.87-.31-1.97-.35-2.53,1.03-.47,1.16-.01,1.96,1.1,2.41s1.88.06,3.17-1.15c1.71-1.61,3.07-2.05,4.79-1.35,1.88.76,2.81,2.31,1.88,4.5-.94,2.21-2.59,2.55-4.4,1.94l.52-1.27ZM163.99,118.04l-14.35-5.8.33-.82,14.35,5.8-.33.82Z" fill="#FFFFFF"></path><path class="cls-14" d="M173.51,114.78c-.36.31-4.27,3.7-11.35,6.08-1.45.49-3.03.94-4.74,1.31-3.83.85-8.34,1.3-13.46.97-2.55-.15-5.26-.51-8.12-1.11-3.91-.82-6.89-2.11-9.12-3.64-8.09-5.49-6.72-13.98-6.72-13.98,0,0,16.95,4.01,25.87,1.12,0,0,15.58,18.33,27.62,9.24Z" fill="#5CE1F9"></path><path class="cls-18" d="M166.58,121.1s-3.9.53-9.16,1.07c-4.07.41-8.94.82-13.46.97-2.55-.15-5.26-.51-8.12-1.11-3.91-.82-6.89-2.11-9.12-3.64-2.29-3-2.74-5.98-2.74-5.98,1.56-.45,1.89-2.68,1.89-2.68,4.24,2.12,14.95,1.23,14.95,1.23,2,3.01,5.57,2.34,5.57,2.34,5.08,5.28,11.54,7.01,15.76,7.56,2.66.36,4.42.25,4.42.25Z"></path><rect class="cls-2" x="184.89" y="173.49" width="23.69" height="74.6"></rect><rect class="cls-20" x="184.88" y="171.1" width="23.71" height="13.73"></rect><rect class="cls-2" x="244.52" y="173.49" width="23.69" height="74.6"></rect><path class="cls-2" d="M182.43,245.86h148.14c2.45,0,4.45,1.99,4.45,4.45v11.84h-157.03v-11.84c0-2.45,1.99-4.45,4.45-4.45Z"></path><rect class="cls-21" x="177.98" y="250.31" width="157.03" height="11.84"></rect><rect class="cls-22" x="244.51" y="171.1" width="23.71" height="13.73"></rect><rect class="cls-2" x="304.15" y="173.49" width="23.69" height="74.6"></rect><rect class="cls-23" x="304.14" y="171.1" width="23.71" height="13.73"></rect><path class="cls-2" d="M331.47,155.68h-153.24c-6.26,0-11.34-5.08-11.34-11.34v-15.12c0-4.63,2.81-8.79,7.1-10.52l73.93-29.8c2.64-1.06,5.59-1.1,8.25-.09l79.31,29.98c4.41,1.67,7.33,5.89,7.33,10.61v14.94c0,6.26-5.08,11.34-11.34,11.34Z"></path><path class="cls-24" d="M317.28,144.72h-124.87c-2.31,0-4.19-1.88-4.19-4.19v-10.86c0-1.71,1.04-3.25,2.62-3.89l60.34-24.32c.98-.39,2.06-.41,3.05-.03l64.52,24.39c1.63.62,2.71,2.18,2.71,3.92v10.79c0,2.31-1.88,4.19-4.19,4.19Z"></path><rect class="cls-2" x="167.15" y="155.24" width="175.4" height="18.9" rx="5.02" ry="5.02"></rect><rect class="cls-19" x="167.15" y="155.24" width="175.4" height="11.46" rx="3.91" ry="3.91"></rect><path class="cls-13" d="M249.94,128.76c.18,2.02,1.19,3.73,3.64,3.69,2.28-.03,3.41-1.16,3.37-3.72-.03-2.11-1.09-3.35-3.89-4.65-3.36-1.51-5.12-3-5.17-6.18-.05-3.22,1.96-5.39,5.32-5.44,4-.06,5.41,2.46,5.53,5.19l-2.27.03c-.09-1.56-.75-3.31-3.27-3.27-2.12.03-3.06,1.27-3.03,3.3.03,1.93,1.15,2.97,3.87,4.19,3.63,1.62,5.21,3.45,5.25,6.58.05,3.44-1.76,5.89-5.77,5.89-4.07,0-5.68-2.36-5.91-5.59l2.32-.03ZM252.94,136.8l-.37-26.18,1.5-.02.37,26.18-1.5.02Z" fill="#FFFFFF"></path><path class="cls-2" d="M173.17,258.35h166c1.3,0,2.35,1.06,2.35,2.35v7.64h-170.71v-7.64c0-1.3,1.06-2.35,2.35-2.35Z"></path><path class="cls-13" d="M334.26,181.96c5.65.29,11.33.8,16.85,2.41,2.78.88,5.59,1.89,7.76,3.99,5.36,5.21-.94,11.93-5.39,15.1-35.68,24.44-112.93,37.1-156.3,36.11-5.7-.16-11.4-.5-17.08-1.33-5.71-.9-11.48-1.97-16.6-4.89-7.07-4.25-5.03-10.4.64-14.85,4.47-3.64,9.6-6.17,14.77-8.46-5.9,3.33-16.91,8.93-18.37,15.85-.64,10.45,29.25,10.49,36.68,10.57,33.76-.37,67.42-5.83,100.14-13.94,16.28-4.24,32.58-9.06,47.62-16.65,27.42-14.35,10.15-21.55-10.72-23.91h0Z" fill="#FFFFFF"></path></svg>